<mxfile host="app.diagrams.net" modified="2022-12-14T23:36:38.396Z" agent="5.0 (Windows NT 10.0; Win64; x64) AppleWebKit/537.36 (KHTML, like Gecko) Chrome/108.0.0.0 Safari/537.36" etag="CPWCCSmEt4f6F99iIVtR" version="20.6.2" type="github">
  <diagram id="C5RBs43oDa-KdzZeNtuy" name="Page-1">
    <mxGraphModel dx="868" dy="393" grid="1" gridSize="10" guides="1" tooltips="1" connect="1" arrows="1" fold="1" page="1" pageScale="1" pageWidth="827" pageHeight="1169" background="#F1FAEE" math="0" shadow="1">
      <root>
        <mxCell id="WIyWlLk6GJQsqaUBKTNV-0" />
        <mxCell id="WIyWlLk6GJQsqaUBKTNV-1" parent="WIyWlLk6GJQsqaUBKTNV-0" />
        <mxCell id="hyacO7NctmVlxOkXS1On-0" value="INICIO" style="ellipse;whiteSpace=wrap;html=1;fontSize=16;fillColor=#f0a30a;strokeColor=#BD7000;fontColor=#000000;rounded=0;" parent="WIyWlLk6GJQsqaUBKTNV-1" vertex="1">
          <mxGeometry x="190" y="10" width="110" height="60" as="geometry" />
        </mxCell>
        <mxCell id="hyacO7NctmVlxOkXS1On-1" value="FIM" style="ellipse;whiteSpace=wrap;html=1;fontSize=16;fillColor=#f0a30a;strokeColor=#BD7000;fontColor=#000000;rounded=0;" parent="WIyWlLk6GJQsqaUBKTNV-1" vertex="1">
          <mxGeometry x="287.5" y="1100" width="130" height="80" as="geometry" />
        </mxCell>
        <mxCell id="hyacO7NctmVlxOkXS1On-3" value="" style="edgeStyle=none;orthogonalLoop=1;jettySize=auto;html=1;rounded=0;fontSize=12;endArrow=open;startSize=14;endSize=14;sourcePerimeterSpacing=8;targetPerimeterSpacing=8;exitX=0.5;exitY=1;exitDx=0;exitDy=0;strokeColor=#457B9D;fontColor=#1D3557;labelBackgroundColor=#F1FAEE;entryX=0;entryY=0;entryDx=85;entryDy=0;entryPerimeter=0;" parent="WIyWlLk6GJQsqaUBKTNV-1" source="hyacO7NctmVlxOkXS1On-0" target="BR0fSph3nn5r3dZTX79p-6" edge="1">
          <mxGeometry width="140" relative="1" as="geometry">
            <mxPoint x="260" y="90" as="sourcePoint" />
            <mxPoint x="225" y="134.95999999999992" as="targetPoint" />
            <Array as="points" />
          </mxGeometry>
        </mxCell>
        <mxCell id="hyacO7NctmVlxOkXS1On-6" value="Abastecimento peça?" style="rhombus;whiteSpace=wrap;html=1;fontSize=16;fillColor=#A8DADC;strokeColor=#457B9D;fontColor=#1D3557;rounded=0;" parent="WIyWlLk6GJQsqaUBKTNV-1" vertex="1">
          <mxGeometry x="620" y="120" width="150" height="110" as="geometry" />
        </mxCell>
        <mxCell id="hyacO7NctmVlxOkXS1On-7" value="Subtrair quantidade estoque pela quantidade requerida" style="whiteSpace=wrap;html=1;aspect=fixed;fontSize=16;fillColor=#60a917;strokeColor=#2D7600;fontColor=#ffffff;rounded=0;" parent="WIyWlLk6GJQsqaUBKTNV-1" vertex="1">
          <mxGeometry x="690" y="297.5" width="135" height="135" as="geometry" />
        </mxCell>
        <mxCell id="hyacO7NctmVlxOkXS1On-17" value="Somar quantidade estoque pela quantidade requerida" style="whiteSpace=wrap;html=1;aspect=fixed;fontSize=16;fillColor=#60a917;strokeColor=#2D7600;rounded=0;fontColor=#ffffff;" parent="WIyWlLk6GJQsqaUBKTNV-1" vertex="1">
          <mxGeometry x="700" y="470" width="135" height="135" as="geometry" />
        </mxCell>
        <mxCell id="hyacO7NctmVlxOkXS1On-22" value="deseja requerir mas peças" style="rhombus;whiteSpace=wrap;html=1;fontSize=16;fillColor=#A8DADC;strokeColor=#457B9D;fontColor=#1D3557;rounded=0;" parent="WIyWlLk6GJQsqaUBKTNV-1" vertex="1">
          <mxGeometry x="697.5" y="835" width="137.5" height="165" as="geometry" />
        </mxCell>
        <mxCell id="hyacO7NctmVlxOkXS1On-25" value="deseja subtrair mas peças" style="rhombus;whiteSpace=wrap;html=1;fontSize=16;fillColor=#A8DADC;strokeColor=#457B9D;fontColor=#1D3557;rounded=0;" parent="WIyWlLk6GJQsqaUBKTNV-1" vertex="1">
          <mxGeometry x="695" y="650" width="140" height="170" as="geometry" />
        </mxCell>
        <mxCell id="BR0fSph3nn5r3dZTX79p-0" value="SALDO ATUAL &lt;br&gt;ESOQUE" style="shape=display;whiteSpace=wrap;html=1;fillColor=#ffff88;strokeColor=#36393d;" vertex="1" parent="WIyWlLk6GJQsqaUBKTNV-1">
          <mxGeometry x="145" y="1000" width="130" height="70" as="geometry" />
        </mxCell>
        <mxCell id="BR0fSph3nn5r3dZTX79p-1" value="SALDO ATUAL &lt;br&gt;ESOQUE" style="shape=display;whiteSpace=wrap;html=1;fillColor=#ffff88;strokeColor=#36393d;" vertex="1" parent="WIyWlLk6GJQsqaUBKTNV-1">
          <mxGeometry x="400" y="1000" width="130" height="70" as="geometry" />
        </mxCell>
        <mxCell id="BR0fSph3nn5r3dZTX79p-2" value="" style="endArrow=classic;html=1;rounded=0;exitX=0.558;exitY=1.018;exitDx=0;exitDy=0;exitPerimeter=0;entryX=-0.02;entryY=0.628;entryDx=0;entryDy=0;entryPerimeter=0;" edge="1" parent="WIyWlLk6GJQsqaUBKTNV-1" source="BR0fSph3nn5r3dZTX79p-0" target="hyacO7NctmVlxOkXS1On-1">
          <mxGeometry width="50" height="50" relative="1" as="geometry">
            <mxPoint x="390" y="1040" as="sourcePoint" />
            <mxPoint x="440" y="990" as="targetPoint" />
            <Array as="points">
              <mxPoint x="220" y="1150" />
            </Array>
          </mxGeometry>
        </mxCell>
        <mxCell id="BR0fSph3nn5r3dZTX79p-5" value="" style="endArrow=classic;html=1;rounded=0;entryX=1;entryY=0.5;entryDx=0;entryDy=0;exitX=0.589;exitY=1.033;exitDx=0;exitDy=0;exitPerimeter=0;" edge="1" parent="WIyWlLk6GJQsqaUBKTNV-1" source="BR0fSph3nn5r3dZTX79p-1" target="hyacO7NctmVlxOkXS1On-1">
          <mxGeometry width="50" height="50" relative="1" as="geometry">
            <mxPoint x="560" y="1110" as="sourcePoint" />
            <mxPoint x="440" y="990" as="targetPoint" />
            <Array as="points">
              <mxPoint x="480" y="1140" />
            </Array>
          </mxGeometry>
        </mxCell>
        <mxCell id="BR0fSph3nn5r3dZTX79p-6" value="Informe o saldo atual da peça" style="shape=display;whiteSpace=wrap;html=1;fillColor=#ffff88;strokeColor=#36393d;align=center;" vertex="1" parent="WIyWlLk6GJQsqaUBKTNV-1">
          <mxGeometry x="160" y="140" width="160" height="60" as="geometry" />
        </mxCell>
        <mxCell id="BR0fSph3nn5r3dZTX79p-8" value="&lt;div style=&quot;line-height: 120%;&quot;&gt;&lt;span style=&quot;background-color: initial;&quot;&gt;SALDO(S)&lt;/span&gt;&lt;/div&gt;" style="shape=manualInput;whiteSpace=wrap;html=1;align=center;" vertex="1" parent="WIyWlLk6GJQsqaUBKTNV-1">
          <mxGeometry x="205" y="227.5" width="80" height="70" as="geometry" />
        </mxCell>
        <mxCell id="BR0fSph3nn5r3dZTX79p-10" value="OPÇÃO:&lt;br&gt;1: PARA ENTRADA&lt;br&gt;2: PARA SAÍDA" style="shape=display;whiteSpace=wrap;html=1;fillColor=#ffff88;strokeColor=#36393d;align=center;" vertex="1" parent="WIyWlLk6GJQsqaUBKTNV-1">
          <mxGeometry x="160" y="340" width="160" height="60" as="geometry" />
        </mxCell>
      </root>
    </mxGraphModel>
  </diagram>
</mxfile>
